<mxfile host="app.diagrams.net" modified="2022-04-05T08:28:35.576Z" agent="5.0 (Windows NT 6.1; Win64; x64) AppleWebKit/537.36 (KHTML, like Gecko) Chrome/99.0.4844.84 Safari/537.36" etag="r51UM3VUqB8l_X1Z_CqH" version="16.2.4" type="github">
  <diagram id="ZvBWjjgQ0p8d6c_FjP97" name="Page-1">
    <mxGraphModel dx="2062" dy="1132" grid="1" gridSize="10" guides="1" tooltips="1" connect="1" arrows="1" fold="1" page="1" pageScale="1" pageWidth="100000" pageHeight="200000" math="0" shadow="0">
      <root>
        <mxCell id="0" />
        <mxCell id="1" parent="0" />
        <mxCell id="Z9xgoCtB_bgihMzi4D6J-1" value="" style="rounded=1;whiteSpace=wrap;html=1;" vertex="1" parent="1">
          <mxGeometry x="400" y="260" width="170" height="340" as="geometry" />
        </mxCell>
        <mxCell id="Z9xgoCtB_bgihMzi4D6J-7" value="" style="group" vertex="1" connectable="0" parent="1">
          <mxGeometry x="380" y="290" width="160" height="30" as="geometry" />
        </mxCell>
        <mxCell id="Z9xgoCtB_bgihMzi4D6J-2" value="&amp;nbsp;转发到：IP1 + 远程端口1" style="rounded=0;whiteSpace=wrap;html=1;align=left;" vertex="1" parent="Z9xgoCtB_bgihMzi4D6J-7">
          <mxGeometry x="20" width="140" height="30" as="geometry" />
        </mxCell>
        <mxCell id="Z9xgoCtB_bgihMzi4D6J-5" value="" style="rounded=0;whiteSpace=wrap;html=1;fillColor=#000000;" vertex="1" parent="Z9xgoCtB_bgihMzi4D6J-7">
          <mxGeometry y="10" width="20" height="10" as="geometry" />
        </mxCell>
        <mxCell id="Z9xgoCtB_bgihMzi4D6J-8" value="本地端口1" style="text;html=1;resizable=0;autosize=1;align=center;verticalAlign=middle;points=[];fillColor=none;strokeColor=none;rounded=0;" vertex="1" parent="1">
          <mxGeometry x="310" y="270" width="70" height="20" as="geometry" />
        </mxCell>
        <mxCell id="Z9xgoCtB_bgihMzi4D6J-10" value="" style="group" vertex="1" connectable="0" parent="1">
          <mxGeometry x="380" y="450" width="160" height="30" as="geometry" />
        </mxCell>
        <mxCell id="Z9xgoCtB_bgihMzi4D6J-11" value="&amp;nbsp;转发到：IP1 + 远程端口1" style="rounded=0;whiteSpace=wrap;html=1;align=left;" vertex="1" parent="Z9xgoCtB_bgihMzi4D6J-10">
          <mxGeometry x="20" width="140" height="30" as="geometry" />
        </mxCell>
        <mxCell id="Z9xgoCtB_bgihMzi4D6J-12" value="" style="rounded=0;whiteSpace=wrap;html=1;fillColor=#000000;" vertex="1" parent="Z9xgoCtB_bgihMzi4D6J-10">
          <mxGeometry y="10" width="20" height="10" as="geometry" />
        </mxCell>
        <mxCell id="Z9xgoCtB_bgihMzi4D6J-13" value="" style="group" vertex="1" connectable="0" parent="1">
          <mxGeometry x="380" y="370" width="160" height="30" as="geometry" />
        </mxCell>
        <mxCell id="Z9xgoCtB_bgihMzi4D6J-14" value="&amp;nbsp;转发到：IP1 + 远程端口1" style="rounded=0;whiteSpace=wrap;html=1;align=left;" vertex="1" parent="Z9xgoCtB_bgihMzi4D6J-13">
          <mxGeometry x="20" width="140" height="30" as="geometry" />
        </mxCell>
        <mxCell id="Z9xgoCtB_bgihMzi4D6J-15" value="" style="rounded=0;whiteSpace=wrap;html=1;fillColor=#000000;" vertex="1" parent="Z9xgoCtB_bgihMzi4D6J-13">
          <mxGeometry y="10" width="20" height="10" as="geometry" />
        </mxCell>
        <mxCell id="Z9xgoCtB_bgihMzi4D6J-17" value="" style="group" vertex="1" connectable="0" parent="1">
          <mxGeometry x="380" y="530" width="160" height="30" as="geometry" />
        </mxCell>
        <mxCell id="Z9xgoCtB_bgihMzi4D6J-18" value="&amp;nbsp;转发到：IP1 + 远程端口1" style="rounded=0;whiteSpace=wrap;html=1;align=left;" vertex="1" parent="Z9xgoCtB_bgihMzi4D6J-17">
          <mxGeometry x="20" width="140" height="30" as="geometry" />
        </mxCell>
        <mxCell id="Z9xgoCtB_bgihMzi4D6J-19" value="" style="rounded=0;whiteSpace=wrap;html=1;fillColor=#000000;" vertex="1" parent="Z9xgoCtB_bgihMzi4D6J-17">
          <mxGeometry y="10" width="20" height="10" as="geometry" />
        </mxCell>
        <mxCell id="Z9xgoCtB_bgihMzi4D6J-20" value="本地端口2" style="text;html=1;resizable=0;autosize=1;align=center;verticalAlign=middle;points=[];fillColor=none;strokeColor=none;rounded=0;" vertex="1" parent="1">
          <mxGeometry x="310" y="360" width="70" height="20" as="geometry" />
        </mxCell>
        <mxCell id="Z9xgoCtB_bgihMzi4D6J-21" value="本地端口3" style="text;html=1;resizable=0;autosize=1;align=center;verticalAlign=middle;points=[];fillColor=none;strokeColor=none;rounded=0;" vertex="1" parent="1">
          <mxGeometry x="310" y="440" width="70" height="20" as="geometry" />
        </mxCell>
        <mxCell id="Z9xgoCtB_bgihMzi4D6J-22" value="本地端口..." style="text;html=1;resizable=0;autosize=1;align=center;verticalAlign=middle;points=[];fillColor=none;strokeColor=none;rounded=0;" vertex="1" parent="1">
          <mxGeometry x="310" y="520" width="70" height="20" as="geometry" />
        </mxCell>
        <mxCell id="Z9xgoCtB_bgihMzi4D6J-23" value="" style="rounded=1;whiteSpace=wrap;html=1;" vertex="1" parent="1">
          <mxGeometry x="760" y="260" width="160" height="340" as="geometry" />
        </mxCell>
        <mxCell id="Z9xgoCtB_bgihMzi4D6J-31" style="edgeStyle=orthogonalEdgeStyle;rounded=0;orthogonalLoop=1;jettySize=auto;html=1;exitX=1;exitY=0.5;exitDx=0;exitDy=0;entryX=0;entryY=0;entryDx=0;entryDy=0;" edge="1" parent="1" source="Z9xgoCtB_bgihMzi4D6J-24" target="Z9xgoCtB_bgihMzi4D6J-30">
          <mxGeometry relative="1" as="geometry" />
        </mxCell>
        <mxCell id="Z9xgoCtB_bgihMzi4D6J-24" value="" style="rounded=0;whiteSpace=wrap;html=1;fillColor=#000000;" vertex="1" parent="1">
          <mxGeometry x="570" y="380" width="20" height="10" as="geometry" />
        </mxCell>
        <mxCell id="Z9xgoCtB_bgihMzi4D6J-32" style="edgeStyle=orthogonalEdgeStyle;rounded=0;orthogonalLoop=1;jettySize=auto;html=1;exitX=1;exitY=0.25;exitDx=0;exitDy=0;" edge="1" parent="1" source="Z9xgoCtB_bgihMzi4D6J-25">
          <mxGeometry relative="1" as="geometry">
            <mxPoint x="740" y="428" as="targetPoint" />
          </mxGeometry>
        </mxCell>
        <mxCell id="Z9xgoCtB_bgihMzi4D6J-25" value="" style="rounded=0;whiteSpace=wrap;html=1;fillColor=#000000;" vertex="1" parent="1">
          <mxGeometry x="570" y="425" width="20" height="10" as="geometry" />
        </mxCell>
        <mxCell id="Z9xgoCtB_bgihMzi4D6J-33" style="edgeStyle=orthogonalEdgeStyle;rounded=0;orthogonalLoop=1;jettySize=auto;html=1;exitX=1;exitY=0.5;exitDx=0;exitDy=0;" edge="1" parent="1" source="Z9xgoCtB_bgihMzi4D6J-26">
          <mxGeometry relative="1" as="geometry">
            <mxPoint x="740" y="430" as="targetPoint" />
          </mxGeometry>
        </mxCell>
        <mxCell id="Z9xgoCtB_bgihMzi4D6J-26" value="" style="rounded=0;whiteSpace=wrap;html=1;fillColor=#000000;" vertex="1" parent="1">
          <mxGeometry x="570" y="470" width="20" height="10" as="geometry" />
        </mxCell>
        <mxCell id="Z9xgoCtB_bgihMzi4D6J-30" value="" style="rounded=0;whiteSpace=wrap;html=1;fillColor=#000000;" vertex="1" parent="1">
          <mxGeometry x="740" y="425" width="20" height="10" as="geometry" />
        </mxCell>
      </root>
    </mxGraphModel>
  </diagram>
</mxfile>
